<svg id="svg" version="1.1" xmlns="http://www.w3.org/2000/svg" xmlns:xlink="http://www.w3.org/1999/xlink" width="400" height="578.839590443686" viewBox="0, 0, 400,578.839590443686"><g id="svgg"><path id="path0" d="M190.500 19.875 C 187.236 19.997,186.400 20.147,186.400 20.614 C 186.400 21.096,185.549 21.200,181.600 21.200 C 177.600 21.200,176.800 21.300,176.800 21.800 C 176.800 22.284,176.174 22.400,173.563 22.400 C 170.662 22.400,170.303 22.483,170.116 23.200 C 169.934 23.895,169.570 24.000,167.341 24.000 C 165.429 24.000,164.716 24.153,164.545 24.600 C 164.383 25.020,163.728 25.200,162.357 25.200 C 160.667 25.200,160.400 25.309,160.400 26.000 C 160.400 26.693,160.133 26.800,158.400 26.800 C 156.889 26.800,156.400 26.947,156.400 27.400 C 156.400 27.819,155.978 28.000,155.000 28.000 C 154.022 28.000,153.600 28.181,153.600 28.600 C 153.600 29.004,153.196 29.200,152.363 29.200 C 151.462 29.200,151.068 29.417,150.916 30.000 C 150.759 30.601,150.370 30.800,149.353 30.800 C 148.417 30.800,148.000 30.985,148.000 31.400 C 148.000 31.800,147.600 32.000,146.800 32.000 C 145.867 32.000,145.600 32.178,145.600 32.800 C 145.600 33.448,145.333 33.600,144.200 33.600 C 143.222 33.600,142.800 33.781,142.800 34.200 C 142.800 34.601,142.399 34.800,141.587 34.800 C 140.917 34.800,140.279 35.050,140.160 35.361 C 140.041 35.669,139.597 36.012,139.172 36.123 C 138.748 36.234,138.400 36.612,138.400 36.963 C 138.400 37.404,138.031 37.600,137.200 37.600 C 136.400 37.600,136.000 37.800,136.000 38.200 C 136.000 38.533,135.644 38.800,135.200 38.800 C 134.667 38.800,134.400 39.067,134.400 39.600 C 134.400 40.216,134.133 40.400,133.243 40.400 C 132.583 40.400,131.987 40.658,131.855 41.000 C 131.729 41.330,131.349 41.600,131.013 41.600 C 130.667 41.600,130.400 41.948,130.400 42.400 C 130.400 42.844,130.133 43.200,129.800 43.200 C 129.470 43.200,129.200 43.470,129.200 43.800 C 129.200 44.133,128.844 44.400,128.400 44.400 C 127.956 44.400,127.600 44.667,127.600 45.000 C 127.600 45.373,127.223 45.600,126.603 45.600 C 126.040 45.600,125.390 45.948,125.107 46.400 C 124.832 46.840,124.381 47.200,124.104 47.200 C 123.827 47.200,123.600 47.470,123.600 47.800 C 123.600 48.130,123.330 48.400,123.000 48.400 C 122.667 48.400,122.400 48.756,122.400 49.200 C 122.400 49.733,122.133 50.000,121.600 50.000 C 121.156 50.000,120.800 50.267,120.800 50.600 C 120.800 50.930,120.530 51.200,120.200 51.200 C 119.870 51.200,119.600 51.470,119.600 51.800 C 119.600 52.130,119.313 52.400,118.963 52.400 C 118.612 52.400,118.231 52.760,118.116 53.200 C 118.001 53.640,117.658 54.000,117.353 54.000 C 117.049 54.000,116.800 54.180,116.800 54.400 C 116.800 54.620,116.440 55.160,116.000 55.600 C 115.560 56.040,115.200 56.760,115.200 57.200 C 115.200 57.644,114.933 58.000,114.600 58.000 C 114.270 58.000,114.000 58.251,114.000 58.557 C 114.000 58.864,113.730 59.218,113.400 59.345 C 113.070 59.471,112.800 59.851,112.800 60.187 C 112.800 60.533,112.452 60.800,112.000 60.800 C 111.560 60.800,111.200 61.051,111.200 61.357 C 111.200 61.664,110.930 62.018,110.600 62.145 C 110.249 62.279,110.000 62.879,110.000 63.587 C 110.000 64.533,109.824 64.800,109.200 64.800 C 108.667 64.800,108.400 65.067,108.400 65.600 C 108.400 66.044,108.133 66.400,107.800 66.400 C 107.400 66.400,107.200 66.800,107.200 67.600 C 107.200 68.400,107.000 68.800,106.600 68.800 C 106.267 68.800,106.000 69.156,106.000 69.600 C 106.000 70.133,105.733 70.400,105.200 70.400 C 104.552 70.400,104.400 70.667,104.400 71.800 C 104.400 72.778,104.219 73.200,103.800 73.200 C 103.405 73.200,103.200 73.595,103.200 74.353 C 103.200 75.170,102.967 75.568,102.400 75.716 C 101.960 75.831,101.600 76.212,101.600 76.563 C 101.600 76.913,101.330 77.200,101.000 77.200 C 100.549 77.200,100.400 77.684,100.400 79.153 C 100.400 80.770,100.262 81.143,99.600 81.316 C 99.017 81.468,98.800 81.862,98.800 82.763 C 98.800 83.596,98.604 84.000,98.200 84.000 C 97.781 84.000,97.600 84.422,97.600 85.400 C 97.600 86.378,97.419 86.800,97.000 86.800 C 96.547 86.800,96.400 87.289,96.400 88.800 C 96.400 90.533,96.293 90.800,95.600 90.800 C 94.907 90.800,94.800 91.067,94.800 92.800 C 94.800 94.311,94.653 94.800,94.200 94.800 C 93.739 94.800,93.600 95.311,93.600 97.000 C 93.600 98.614,93.452 99.200,93.043 99.200 C 92.236 99.200,92.000 100.112,92.000 103.233 C 92.000 105.426,91.876 106.000,91.400 106.000 C 90.907 106.000,90.800 106.711,90.800 110.000 C 90.800 113.289,90.693 114.000,90.200 114.000 C 89.673 114.000,89.600 117.289,89.600 141.200 L 89.600 168.400 60.050 168.400 C 30.095 168.400,28.000 168.469,28.000 169.450 C 28.000 169.753,27.730 170.000,27.400 170.000 C 26.868 170.000,26.800 186.111,26.800 312.600 C 26.800 439.089,26.868 455.200,27.400 455.200 C 27.782 455.200,28.000 455.584,28.000 456.254 C 28.000 457.540,29.676 459.200,30.974 459.200 C 31.570 459.200,31.982 459.489,32.116 460.000 C 32.268 460.583,32.662 460.800,33.563 460.800 C 34.396 460.800,34.800 460.996,34.800 461.400 C 34.800 461.815,35.217 462.000,36.153 462.000 C 37.170 462.000,37.559 462.199,37.716 462.800 C 37.868 463.383,38.262 463.600,39.163 463.600 C 39.996 463.600,40.400 463.796,40.400 464.200 C 40.400 464.619,40.822 464.800,41.800 464.800 C 42.778 464.800,43.200 464.981,43.200 465.400 C 43.200 465.795,43.595 466.000,44.353 466.000 C 45.170 466.000,45.568 466.233,45.716 466.800 C 45.868 467.383,46.262 467.600,47.163 467.600 C 47.996 467.600,48.400 467.796,48.400 468.200 C 48.400 468.615,48.817 468.800,49.753 468.800 C 50.770 468.800,51.159 468.999,51.316 469.600 C 51.468 470.183,51.862 470.400,52.763 470.400 C 53.596 470.400,54.000 470.596,54.000 471.000 C 54.000 471.419,54.422 471.600,55.400 471.600 C 56.378 471.600,56.800 471.781,56.800 472.200 C 56.800 472.530,57.145 472.800,57.567 472.800 C 58.759 472.800,59.600 473.231,59.600 473.843 C 59.600 474.195,60.041 474.400,60.800 474.400 C 61.600 474.400,62.000 474.600,62.000 475.000 C 62.000 475.415,62.417 475.600,63.353 475.600 C 64.370 475.600,64.759 475.799,64.916 476.400 C 65.068 476.983,65.462 477.200,66.363 477.200 C 67.196 477.200,67.600 477.396,67.600 477.800 C 67.600 478.219,68.022 478.400,69.000 478.400 C 69.930 478.400,70.400 478.587,70.400 478.957 C 70.400 479.569,71.241 480.000,72.433 480.000 C 72.855 480.000,73.200 480.270,73.200 480.600 C 73.200 481.001,73.601 481.200,74.413 481.200 C 75.121 481.200,75.721 481.449,75.855 481.800 C 75.984 482.134,76.578 482.400,77.196 482.400 C 77.970 482.400,78.370 482.642,78.516 483.200 C 78.668 483.783,79.062 484.000,79.963 484.000 C 80.796 484.000,81.200 484.196,81.200 484.600 C 81.200 485.019,81.622 485.200,82.600 485.200 C 83.733 485.200,84.000 485.352,84.000 486.000 C 84.000 486.648,84.267 486.800,85.400 486.800 C 86.378 486.800,86.800 486.981,86.800 487.400 C 86.800 487.819,87.222 488.000,88.200 488.000 C 89.178 488.000,89.600 488.181,89.600 488.600 C 89.600 488.995,89.995 489.200,90.753 489.200 C 91.570 489.200,91.968 489.433,92.116 490.000 C 92.268 490.583,92.662 490.800,93.563 490.800 C 94.396 490.800,94.800 490.996,94.800 491.400 C 94.800 491.819,95.222 492.000,96.200 492.000 C 97.333 492.000,97.600 492.152,97.600 492.800 C 97.600 493.448,97.867 493.600,99.000 493.600 C 99.978 493.600,100.400 493.781,100.400 494.200 C 100.400 494.619,100.822 494.800,101.800 494.800 C 102.758 494.800,103.200 494.984,103.200 495.382 C 103.200 495.730,103.762 496.069,104.600 496.226 C 105.402 496.377,106.000 496.726,106.000 497.045 C 106.000 497.395,106.443 497.600,107.200 497.600 C 108.000 497.600,108.400 497.800,108.400 498.200 C 108.400 498.619,108.822 498.800,109.800 498.800 C 110.933 498.800,111.200 498.952,111.200 499.600 C 111.200 500.248,111.467 500.400,112.600 500.400 C 113.578 500.400,114.000 500.581,114.000 501.000 C 114.000 501.415,114.417 501.600,115.353 501.600 C 116.370 501.600,116.759 501.799,116.916 502.400 C 117.068 502.983,117.462 503.200,118.363 503.200 C 119.196 503.200,119.600 503.396,119.600 503.800 C 119.600 504.201,120.001 504.400,120.813 504.400 C 121.521 504.400,122.121 504.649,122.255 505.000 C 122.384 505.334,122.978 505.600,123.596 505.600 C 124.370 505.600,124.770 505.842,124.916 506.400 C 125.068 506.983,125.462 507.200,126.363 507.200 C 127.196 507.200,127.600 507.396,127.600 507.800 C 127.600 508.219,128.022 508.400,129.000 508.400 C 130.133 508.400,130.400 508.552,130.400 509.200 C 130.400 509.848,130.667 510.000,131.800 510.000 C 132.778 510.000,133.200 510.181,133.200 510.600 C 133.200 511.019,133.622 511.200,134.600 511.200 C 135.578 511.200,136.000 511.381,136.000 511.800 C 136.000 512.197,136.397 512.400,137.173 512.400 C 137.995 512.400,138.422 512.640,138.600 513.200 C 138.778 513.760,139.205 514.000,140.027 514.000 C 140.803 514.000,141.200 514.203,141.200 514.600 C 141.200 515.015,141.617 515.200,142.553 515.200 C 143.570 515.200,143.959 515.399,144.116 516.000 C 144.268 516.583,144.662 516.800,145.563 516.800 C 146.396 516.800,146.800 516.996,146.800 517.400 C 146.800 517.819,147.222 518.000,148.200 518.000 C 149.128 518.000,149.600 518.187,149.600 518.555 C 149.600 518.874,150.198 519.223,151.000 519.374 C 151.838 519.531,152.400 519.870,152.400 520.218 C 152.400 520.599,152.818 520.800,153.613 520.800 C 154.321 520.800,154.921 521.049,155.055 521.400 C 155.217 521.820,155.872 522.000,157.243 522.000 C 158.933 522.000,159.200 522.109,159.200 522.800 C 159.200 523.416,159.467 523.600,160.357 523.600 C 161.017 523.600,161.613 523.858,161.745 524.200 C 161.871 524.530,162.431 524.800,162.987 524.800 C 163.544 524.800,164.360 525.160,164.800 525.600 C 165.333 526.133,166.133 526.400,167.200 526.400 C 168.356 526.400,168.800 526.567,168.800 527.000 C 168.800 527.472,169.356 527.600,171.400 527.600 C 173.444 527.600,174.000 527.728,174.000 528.200 C 174.000 528.676,174.578 528.800,176.800 528.800 C 179.333 528.800,179.600 528.876,179.600 529.600 C 179.600 530.366,179.867 530.400,185.800 530.400 C 191.044 530.400,192.000 530.492,192.000 531.000 C 192.000 531.493,192.711 531.600,196.000 531.600 C 199.289 531.600,200.000 531.493,200.000 531.000 C 200.000 530.493,200.937 530.400,206.037 530.400 C 211.738 530.400,212.087 530.355,212.284 529.600 C 212.472 528.880,212.830 528.800,215.847 528.800 C 218.561 528.800,219.200 528.686,219.200 528.200 C 219.200 527.747,219.689 527.600,221.200 527.600 C 222.711 527.600,223.200 527.453,223.200 527.000 C 223.200 526.547,223.689 526.400,225.200 526.400 C 226.933 526.400,227.200 526.293,227.200 525.600 C 227.200 524.907,227.467 524.800,229.200 524.800 C 230.711 524.800,231.200 524.653,231.200 524.200 C 231.200 523.781,231.622 523.600,232.600 523.600 C 233.733 523.600,234.000 523.448,234.000 522.800 C 234.000 522.152,234.267 522.000,235.400 522.000 C 236.378 522.000,236.800 521.819,236.800 521.400 C 236.800 520.981,237.222 520.800,238.200 520.800 C 239.178 520.800,239.600 520.619,239.600 520.200 C 239.600 519.870,239.945 519.600,240.367 519.600 C 241.559 519.600,242.400 519.169,242.400 518.557 C 242.400 518.187,242.870 518.000,243.800 518.000 C 244.778 518.000,245.200 517.819,245.200 517.400 C 245.200 517.000,245.600 516.800,246.400 516.800 C 247.333 516.800,247.600 516.622,247.600 516.000 C 247.600 515.352,247.867 515.200,249.000 515.200 C 249.978 515.200,250.400 515.019,250.400 514.600 C 250.400 514.147,250.889 514.000,252.400 514.000 C 254.133 514.000,254.400 513.893,254.400 513.200 C 254.400 512.552,254.667 512.400,255.800 512.400 C 256.778 512.400,257.200 512.219,257.200 511.800 C 257.200 511.381,257.622 511.200,258.600 511.200 C 259.578 511.200,260.000 511.019,260.000 510.600 C 260.000 510.270,260.345 510.000,260.767 510.000 C 261.959 510.000,262.800 509.569,262.800 508.957 C 262.800 508.603,263.243 508.400,264.013 508.400 C 264.721 508.400,265.321 508.151,265.455 507.800 C 265.585 507.463,266.180 507.200,266.816 507.200 C 267.595 507.200,268.025 506.951,268.200 506.400 C 268.378 505.840,268.805 505.600,269.627 505.600 C 270.403 505.600,270.800 505.397,270.800 505.000 C 270.800 504.581,271.222 504.400,272.200 504.400 C 273.128 504.400,273.600 504.213,273.600 503.845 C 273.600 503.526,274.198 503.177,275.000 503.026 C 275.838 502.869,276.400 502.530,276.400 502.182 C 276.400 501.801,276.818 501.600,277.613 501.600 C 278.321 501.600,278.921 501.351,279.055 501.000 C 279.189 500.652,279.787 500.400,280.480 500.400 C 281.338 500.400,281.734 500.175,281.884 499.600 C 282.032 499.033,282.430 498.800,283.247 498.800 C 284.005 498.800,284.400 498.595,284.400 498.200 C 284.400 497.781,284.822 497.600,285.800 497.600 C 286.758 497.600,287.200 497.416,287.200 497.018 C 287.200 496.670,287.762 496.331,288.600 496.174 C 289.402 496.023,290.000 495.674,290.000 495.355 C 290.000 494.987,290.472 494.800,291.400 494.800 C 292.378 494.800,292.800 494.619,292.800 494.200 C 292.800 493.870,293.145 493.600,293.567 493.600 C 294.759 493.600,295.600 493.169,295.600 492.557 C 295.600 492.203,296.043 492.000,296.813 492.000 C 297.521 492.000,298.121 491.751,298.255 491.400 C 298.387 491.058,298.983 490.800,299.643 490.800 C 300.533 490.800,300.800 490.616,300.800 490.000 C 300.800 489.352,301.067 489.200,302.200 489.200 C 303.178 489.200,303.600 489.019,303.600 488.600 C 303.600 488.181,304.022 488.000,305.000 488.000 C 305.978 488.000,306.400 487.819,306.400 487.400 C 306.400 487.070,306.745 486.800,307.167 486.800 C 308.359 486.800,309.200 486.369,309.200 485.757 C 309.200 485.403,309.643 485.200,310.413 485.200 C 311.121 485.200,311.721 484.951,311.855 484.600 C 311.985 484.263,312.580 484.000,313.216 484.000 C 313.995 484.000,314.425 483.751,314.600 483.200 C 314.778 482.640,315.205 482.400,316.027 482.400 C 316.803 482.400,317.200 482.197,317.200 481.800 C 317.200 481.381,317.622 481.200,318.600 481.200 C 319.578 481.200,320.000 481.019,320.000 480.600 C 320.000 480.270,320.287 480.000,320.637 480.000 C 320.988 480.000,321.369 479.640,321.484 479.200 C 321.633 478.631,322.030 478.400,322.859 478.400 C 323.527 478.400,324.124 478.143,324.255 477.800 C 324.387 477.458,324.983 477.200,325.643 477.200 C 326.533 477.200,326.800 477.016,326.800 476.400 C 326.800 475.752,327.067 475.600,328.200 475.600 C 329.178 475.600,329.600 475.419,329.600 475.000 C 329.600 474.581,330.022 474.400,331.000 474.400 C 331.958 474.400,332.400 474.216,332.400 473.818 C 332.400 473.470,332.962 473.131,333.800 472.974 C 334.602 472.823,335.200 472.474,335.200 472.155 C 335.200 471.787,335.672 471.600,336.600 471.600 C 337.578 471.600,338.000 471.419,338.000 471.000 C 338.000 470.603,338.397 470.400,339.173 470.400 C 339.995 470.400,340.422 470.160,340.600 469.600 C 340.778 469.040,341.205 468.800,342.027 468.800 C 342.803 468.800,343.200 468.597,343.200 468.200 C 343.200 467.781,343.622 467.600,344.600 467.600 C 345.733 467.600,346.000 467.448,346.000 466.800 C 346.000 466.152,346.267 466.000,347.400 466.000 C 348.378 466.000,348.800 465.819,348.800 465.400 C 348.800 464.981,349.222 464.800,350.200 464.800 C 351.178 464.800,351.600 464.619,351.600 464.200 C 351.600 463.796,352.004 463.600,352.837 463.600 C 353.738 463.600,354.132 463.383,354.284 462.800 C 354.453 462.152,354.830 462.000,356.259 462.000 C 357.460 462.000,358.099 461.808,358.255 461.400 C 358.385 461.063,358.980 460.800,359.616 460.800 C 360.395 460.800,360.825 460.551,361.000 460.000 C 361.140 459.560,361.512 459.200,361.827 459.200 C 362.142 459.200,362.400 458.930,362.400 458.600 C 362.400 458.270,362.625 457.997,362.900 457.993 C 363.760 457.981,365.200 456.135,365.200 455.044 C 365.200 454.383,365.420 454.000,365.800 454.000 C 366.332 454.000,366.400 438.022,366.400 312.600 C 366.400 187.178,366.332 171.200,365.800 171.200 C 365.470 171.200,365.200 170.930,365.200 170.600 C 365.200 170.270,365.020 170.000,364.800 170.000 C 364.580 170.000,364.040 169.640,363.600 169.200 C 362.814 168.414,362.267 168.400,333.200 168.400 L 303.600 168.400 303.600 145.387 C 303.600 125.301,303.524 122.346,303.000 122.145 C 302.500 121.953,302.400 120.815,302.400 115.345 C 302.400 109.874,302.300 108.736,301.800 108.545 C 301.348 108.371,301.200 107.643,301.200 105.590 C 301.200 102.511,300.962 101.600,300.157 101.600 C 299.738 101.600,299.600 100.956,299.600 99.000 C 299.600 96.956,299.472 96.400,299.000 96.400 C 298.545 96.400,298.400 95.907,298.400 94.363 C 298.400 92.662,298.268 92.291,297.600 92.116 C 296.938 91.943,296.800 91.570,296.800 89.953 C 296.800 88.484,296.651 88.000,296.200 88.000 C 295.781 88.000,295.600 87.578,295.600 86.600 C 295.600 85.467,295.448 85.200,294.800 85.200 C 294.107 85.200,294.000 84.933,294.000 83.200 C 294.000 81.689,293.853 81.200,293.400 81.200 C 292.999 81.200,292.800 80.799,292.800 79.987 C 292.800 79.279,292.551 78.679,292.200 78.545 C 291.870 78.418,291.600 77.867,291.600 77.320 C 291.600 76.662,291.329 76.254,290.800 76.116 C 290.199 75.959,290.000 75.570,290.000 74.553 C 290.000 73.617,289.815 73.200,289.400 73.200 C 289.067 73.200,288.800 72.844,288.800 72.400 C 288.800 71.867,288.533 71.600,288.000 71.600 C 287.376 71.600,287.200 71.333,287.200 70.387 C 287.200 69.679,286.951 69.079,286.600 68.945 C 286.270 68.818,286.000 68.464,286.000 68.157 C 286.000 67.851,285.730 67.600,285.400 67.600 C 285.070 67.600,284.800 67.255,284.800 66.833 C 284.800 65.641,284.369 64.800,283.757 64.800 C 283.451 64.800,283.200 64.530,283.200 64.200 C 283.200 63.870,282.930 63.600,282.600 63.600 C 282.196 63.600,282.000 63.196,282.000 62.363 C 282.000 61.462,281.783 61.068,281.200 60.916 C 280.760 60.801,280.400 60.458,280.400 60.153 C 280.400 59.849,280.130 59.600,279.800 59.600 C 279.467 59.600,279.200 59.244,279.200 58.800 C 279.200 58.360,278.949 58.000,278.643 58.000 C 278.336 58.000,277.982 57.730,277.855 57.400 C 277.729 57.070,277.349 56.800,277.013 56.800 C 276.667 56.800,276.400 56.452,276.400 56.000 C 276.400 55.556,276.133 55.200,275.800 55.200 C 275.470 55.200,275.200 54.930,275.200 54.600 C 275.200 54.267,274.844 54.000,274.400 54.000 C 273.867 54.000,273.600 53.733,273.600 53.200 C 273.600 52.756,273.333 52.400,273.000 52.400 C 272.670 52.400,272.400 52.130,272.400 51.800 C 272.400 51.467,272.044 51.200,271.600 51.200 C 271.156 51.200,270.800 50.933,270.800 50.600 C 270.800 50.270,270.530 50.000,270.200 50.000 C 269.867 50.000,269.600 49.644,269.600 49.200 C 269.600 48.756,269.333 48.400,269.000 48.400 C 268.670 48.400,268.400 48.130,268.400 47.800 C 268.400 47.467,268.044 47.200,267.600 47.200 C 267.067 47.200,266.800 46.933,266.800 46.400 C 266.800 45.956,266.533 45.600,266.200 45.600 C 265.870 45.600,265.600 45.330,265.600 45.000 C 265.600 44.667,265.244 44.400,264.800 44.400 C 264.356 44.400,264.000 44.133,264.000 43.800 C 264.000 43.400,263.600 43.200,262.800 43.200 C 261.969 43.200,261.600 43.004,261.600 42.563 C 261.600 42.212,261.240 41.831,260.800 41.716 C 260.360 41.601,260.000 41.258,260.000 40.953 C 260.000 40.649,259.751 40.400,259.447 40.400 C 259.142 40.400,258.799 40.040,258.684 39.600 C 258.532 39.017,258.138 38.800,257.237 38.800 C 256.404 38.800,256.000 38.604,256.000 38.200 C 256.000 37.867,255.644 37.600,255.200 37.600 C 254.750 37.600,254.400 37.333,254.400 36.990 C 254.400 36.632,253.904 36.281,253.200 36.140 C 252.540 36.008,252.000 35.652,252.000 35.350 C 252.000 34.988,251.521 34.800,250.600 34.800 C 249.622 34.800,249.200 34.619,249.200 34.200 C 249.200 33.870,248.861 33.600,248.447 33.600 C 248.030 33.600,247.600 33.243,247.484 32.800 C 247.342 32.256,246.938 32.000,246.225 32.000 C 245.647 32.000,245.071 31.730,244.945 31.400 C 244.813 31.058,244.217 30.800,243.557 30.800 C 242.839 30.800,242.400 30.590,242.400 30.247 C 242.400 29.646,241.216 29.214,239.543 29.205 C 238.961 29.202,238.382 28.930,238.255 28.600 C 238.121 28.249,237.521 28.000,236.813 28.000 C 236.001 28.000,235.600 27.801,235.600 27.400 C 235.600 26.939,235.089 26.800,233.400 26.800 C 231.467 26.800,231.200 26.703,231.200 26.000 C 231.200 25.307,230.933 25.200,229.200 25.200 C 227.689 25.200,227.200 25.053,227.200 24.600 C 227.200 24.147,226.711 24.000,225.200 24.000 C 223.757 24.000,223.200 23.845,223.200 23.443 C 223.200 22.636,222.288 22.400,219.167 22.400 C 216.974 22.400,216.400 22.276,216.400 21.800 C 216.400 21.300,215.600 21.200,211.600 21.200 C 207.600 21.200,206.800 21.100,206.800 20.600 C 206.800 20.113,206.143 19.999,203.300 19.997 C 201.375 19.996,198.630 19.933,197.200 19.858 C 195.770 19.783,192.755 19.790,190.500 19.875 M201.600 65.341 C 201.600 65.740,202.623 65.954,205.492 66.156 C 208.274 66.351,209.478 66.596,209.712 67.015 C 209.947 67.434,210.771 67.600,212.620 67.600 C 214.647 67.600,215.200 67.729,215.200 68.200 C 215.200 68.653,215.689 68.800,217.200 68.800 C 218.933 68.800,219.200 68.907,219.200 69.600 C 219.200 70.248,219.467 70.400,220.600 70.400 C 221.578 70.400,222.000 70.581,222.000 71.000 C 222.000 71.397,222.397 71.600,223.173 71.600 C 223.995 71.600,224.422 71.840,224.600 72.400 C 224.778 72.960,225.205 73.200,226.027 73.200 C 226.803 73.200,227.200 73.403,227.200 73.800 C 227.200 74.133,227.556 74.400,228.000 74.400 C 228.444 74.400,228.800 74.667,228.800 75.000 C 228.800 75.419,229.222 75.600,230.200 75.600 C 231.333 75.600,231.600 75.752,231.600 76.400 C 231.600 76.844,231.867 77.200,232.200 77.200 C 232.530 77.200,232.800 77.470,232.800 77.800 C 232.800 78.130,232.971 78.400,233.179 78.400 C 233.730 78.400,235.600 80.212,235.600 80.746 C 235.600 80.998,236.222 81.200,237.000 81.200 C 237.978 81.200,238.400 81.381,238.400 81.800 C 238.400 82.130,238.670 82.400,239.000 82.400 C 239.333 82.400,239.600 82.756,239.600 83.200 C 239.600 83.644,239.867 84.000,240.200 84.000 C 240.530 84.000,240.800 84.270,240.800 84.600 C 240.800 84.933,241.156 85.200,241.600 85.200 C 242.248 85.200,242.400 85.467,242.400 86.600 C 242.400 87.578,242.581 88.000,243.000 88.000 C 243.330 88.000,243.600 88.270,243.600 88.600 C 243.600 88.933,243.956 89.200,244.400 89.200 C 244.933 89.200,245.200 89.467,245.200 90.000 C 245.200 90.444,245.467 90.800,245.800 90.800 C 246.130 90.800,246.400 91.070,246.400 91.400 C 246.400 91.730,246.650 92.000,246.955 92.000 C 247.274 92.000,247.623 92.598,247.774 93.400 C 247.931 94.238,248.270 94.800,248.618 94.800 C 248.999 94.800,249.200 95.218,249.200 96.013 C 249.200 96.721,249.449 97.321,249.800 97.455 C 250.130 97.582,250.400 97.936,250.400 98.243 C 250.400 98.549,250.760 98.800,251.200 98.800 C 251.891 98.800,252.000 99.067,252.000 100.757 C 252.000 102.128,252.180 102.783,252.600 102.945 C 252.951 103.079,253.200 103.679,253.200 104.387 C 253.200 105.333,253.376 105.600,254.000 105.600 C 254.694 105.600,254.800 105.867,254.800 107.613 C 254.800 109.032,254.977 109.693,255.400 109.855 C 255.820 110.017,256.000 110.672,256.000 112.043 C 256.000 113.516,256.148 114.000,256.600 114.000 C 257.099 114.000,257.200 114.782,257.200 118.637 C 257.200 122.938,257.258 123.290,258.000 123.484 C 258.788 123.690,258.800 124.030,258.800 145.447 L 258.800 167.200 196.600 167.200 L 134.400 167.200 134.400 144.047 C 134.400 121.230,134.412 120.890,135.200 120.684 C 135.916 120.497,136.000 120.138,136.000 117.280 C 136.000 114.810,136.136 114.033,136.600 113.855 C 137.049 113.683,137.200 112.966,137.200 111.013 C 137.200 108.957,137.328 108.400,137.800 108.400 C 138.253 108.400,138.400 107.911,138.400 106.400 C 138.400 104.667,138.507 104.400,139.200 104.400 C 139.848 104.400,140.000 104.133,140.000 103.000 C 140.000 102.022,140.181 101.600,140.600 101.600 C 141.019 101.600,141.200 101.178,141.200 100.200 C 141.200 99.212,141.380 98.800,141.810 98.800 C 142.172 98.800,142.521 98.297,142.667 97.566 C 142.803 96.887,143.158 96.237,143.457 96.123 C 143.756 96.008,144.000 95.394,144.000 94.757 C 144.000 93.995,144.205 93.600,144.600 93.600 C 144.933 93.600,145.200 93.244,145.200 92.800 C 145.200 92.267,145.467 92.000,146.000 92.000 C 146.616 92.000,146.800 91.733,146.800 90.843 C 146.800 90.183,147.058 89.587,147.400 89.455 C 147.730 89.329,148.000 88.949,148.000 88.613 C 148.000 88.267,148.348 88.000,148.800 88.000 C 149.244 88.000,149.600 87.733,149.600 87.400 C 149.600 87.070,149.870 86.800,150.200 86.800 C 150.533 86.800,150.800 86.444,150.800 86.000 C 150.800 85.556,151.067 85.200,151.400 85.200 C 151.730 85.200,152.000 84.930,152.000 84.600 C 152.000 84.267,152.356 84.000,152.800 84.000 C 153.333 84.000,153.600 83.733,153.600 83.200 C 153.600 82.756,153.867 82.400,154.200 82.400 C 154.530 82.400,154.800 82.130,154.800 81.800 C 154.800 81.467,155.156 81.200,155.600 81.200 C 156.044 81.200,156.400 80.933,156.400 80.600 C 156.400 80.270,156.670 80.000,157.000 80.000 C 157.333 80.000,157.600 79.644,157.600 79.200 C 157.600 78.552,157.867 78.400,159.000 78.400 C 159.978 78.400,160.400 78.219,160.400 77.800 C 160.400 77.470,160.670 77.200,161.000 77.200 C 161.333 77.200,161.600 76.844,161.600 76.400 C 161.600 75.867,161.867 75.600,162.400 75.600 C 162.844 75.600,163.200 75.333,163.200 75.000 C 163.200 74.581,163.622 74.400,164.600 74.400 C 165.521 74.400,166.000 74.212,166.000 73.850 C 166.000 73.547,166.540 73.192,167.200 73.060 C 167.904 72.919,168.400 72.568,168.400 72.210 C 168.400 71.780,168.812 71.600,169.800 71.600 C 170.778 71.600,171.200 71.419,171.200 71.000 C 171.200 70.581,171.622 70.400,172.600 70.400 C 173.733 70.400,174.000 70.248,174.000 69.600 C 174.000 68.907,174.267 68.800,176.000 68.800 C 177.511 68.800,178.000 68.653,178.000 68.200 C 178.000 67.724,178.578 67.600,180.800 67.600 C 182.895 67.600,183.600 67.463,183.600 67.056 C 183.600 66.472,186.283 66.010,189.700 66.003 C 191.121 66.001,191.600 65.849,191.600 65.400 C 191.600 64.899,192.422 64.800,196.600 64.800 C 200.535 64.800,201.600 64.915,201.600 65.341 M201.600 299.000 C 201.600 299.453,202.089 299.600,203.600 299.600 C 205.111 299.600,205.600 299.747,205.600 300.200 C 205.600 300.530,205.870 300.800,206.200 300.800 C 206.530 300.800,206.800 301.087,206.800 301.437 C 206.800 301.788,207.160 302.169,207.600 302.284 C 208.040 302.399,208.400 302.742,208.400 303.047 C 208.400 303.351,208.670 303.600,209.000 303.600 C 209.330 303.600,209.600 303.804,209.600 304.054 C 209.600 304.588,211.470 306.400,212.021 306.400 C 212.229 306.400,212.400 306.676,212.400 307.013 C 212.400 307.349,212.670 307.729,213.000 307.855 C 213.342 307.987,213.600 308.583,213.600 309.243 C 213.600 310.133,213.784 310.400,214.400 310.400 C 215.137 310.400,215.200 310.667,215.200 313.800 C 215.200 316.556,215.314 317.200,215.800 317.200 C 216.326 317.200,216.400 319.911,216.400 339.200 C 216.400 358.489,216.326 361.200,215.800 361.200 C 215.329 361.200,215.200 361.750,215.200 363.753 C 215.200 365.970,215.095 366.334,214.400 366.516 C 213.817 366.668,213.600 367.062,213.600 367.963 C 213.600 368.796,213.404 369.200,213.000 369.200 C 212.581 369.200,212.400 369.622,212.400 370.600 C 212.400 371.733,212.248 372.000,211.600 372.000 C 211.156 372.000,210.800 372.267,210.800 372.600 C 210.800 372.930,210.530 373.200,210.200 373.200 C 209.867 373.200,209.600 373.556,209.600 374.000 C 209.600 374.452,209.333 374.800,208.987 374.800 C 208.651 374.800,208.271 375.070,208.145 375.400 C 208.013 375.742,207.417 376.000,206.757 376.000 C 205.867 376.000,205.600 376.184,205.600 376.800 C 205.600 377.448,205.333 377.600,204.200 377.600 C 203.222 377.600,202.800 377.781,202.800 378.200 C 202.800 378.676,202.222 378.800,200.000 378.800 C 197.778 378.800,197.200 378.924,197.200 379.400 C 197.200 379.730,196.949 380.000,196.643 380.000 C 196.336 380.000,195.982 379.730,195.855 379.400 C 195.683 378.951,194.966 378.800,193.013 378.800 C 190.957 378.800,190.400 378.672,190.400 378.200 C 190.400 377.785,189.983 377.600,189.047 377.600 C 188.030 377.600,187.641 377.401,187.484 376.800 C 187.332 376.217,186.938 376.000,186.037 376.000 C 185.204 376.000,184.800 375.804,184.800 375.400 C 184.800 375.070,184.530 374.800,184.200 374.800 C 183.870 374.800,183.597 374.575,183.593 374.300 C 183.585 373.690,181.858 372.000,181.244 372.000 C 181.000 372.000,180.800 371.730,180.800 371.400 C 180.800 371.070,180.530 370.800,180.200 370.800 C 179.781 370.800,179.600 370.378,179.600 369.400 C 179.600 368.267,179.448 368.000,178.800 368.000 C 178.107 368.000,178.000 367.733,178.000 366.000 C 178.000 364.489,177.853 364.000,177.400 364.000 C 176.873 364.000,176.800 360.911,176.800 338.600 C 176.800 316.289,176.873 313.200,177.400 313.200 C 177.815 313.200,178.000 312.783,178.000 311.847 C 178.000 310.830,178.199 310.441,178.800 310.284 C 179.383 310.132,179.600 309.738,179.600 308.837 C 179.600 308.004,179.796 307.600,180.200 307.600 C 180.595 307.600,180.800 307.205,180.800 306.447 C 180.800 305.630,181.033 305.232,181.600 305.084 C 182.040 304.969,182.400 304.588,182.400 304.237 C 182.400 303.887,182.670 303.600,183.000 303.600 C 183.330 303.600,183.600 303.330,183.600 303.000 C 183.600 302.670,183.870 302.400,184.200 302.400 C 184.530 302.400,184.800 302.149,184.800 301.843 C 184.800 301.231,185.641 300.800,186.833 300.800 C 187.255 300.800,187.600 300.530,187.600 300.200 C 187.600 299.781,188.022 299.600,189.000 299.600 C 189.978 299.600,190.400 299.419,190.400 299.000 C 190.400 298.495,191.289 298.400,196.000 298.400 C 200.711 298.400,201.600 298.495,201.600 299.000 " stroke="none" fill="#04fc6c" fill-rule="evenodd"></path><path id="path1" d="" stroke="none" fill="#08fc6c" fill-rule="evenodd"></path><path id="path2" d="" stroke="none" fill="#08fc6c" fill-rule="evenodd"></path><path id="path3" d="" stroke="none" fill="#08fc6c" fill-rule="evenodd"></path><path id="path4" d="" stroke="none" fill="#08fc6c" fill-rule="evenodd"></path></g></svg>